<mxfile host="app.diagrams.net" agent="Mozilla/5.0 (Macintosh; Intel Mac OS X 10_15_7) AppleWebKit/537.36 (KHTML, like Gecko) Chrome/136.0.0.0 Safari/537.36" version="27.1.6">
  <diagram name="Page-1" id="yfuczYp-fqKZ_glMg_5N">
    <mxGraphModel dx="1426" dy="944" grid="1" gridSize="10" guides="1" tooltips="1" connect="1" arrows="1" fold="1" page="1" pageScale="1" pageWidth="850" pageHeight="1100" math="0" shadow="0">
      <root>
        <mxCell id="0" />
        <mxCell id="1" parent="0" />
        <mxCell id="Z-d-DakKIg2ZBR3wUWj1-1" value="&lt;b&gt;GPU Memory&lt;/b&gt;" style="rounded=0;whiteSpace=wrap;html=1;fillColor=#60a917;strokeColor=#2D7600;fontColor=#ffffff;strokeWidth=5;" vertex="1" parent="1">
          <mxGeometry x="470" y="460" width="80" height="60" as="geometry" />
        </mxCell>
        <mxCell id="Z-d-DakKIg2ZBR3wUWj1-2" value="&lt;b&gt;&lt;font style=&quot;font-size: 17px;&quot;&gt;GPU&lt;/font&gt;&lt;/b&gt;" style="rounded=0;whiteSpace=wrap;html=1;fillColor=#008a00;strokeColor=#005700;fontColor=#ffffff;" vertex="1" parent="1">
          <mxGeometry x="450" y="360" width="120" height="60" as="geometry" />
        </mxCell>
        <mxCell id="Z-d-DakKIg2ZBR3wUWj1-3" value="&lt;b&gt;&lt;font style=&quot;font-size: 14px;&quot;&gt;System Memory&lt;/font&gt;&lt;/b&gt;" style="rounded=0;whiteSpace=wrap;html=1;fillColor=#d5e8d4;strokeColor=#82b366;strokeWidth=6;" vertex="1" parent="1">
          <mxGeometry x="470" y="270" width="80" height="60" as="geometry" />
        </mxCell>
        <mxCell id="Z-d-DakKIg2ZBR3wUWj1-4" value="&lt;b&gt;&lt;font style=&quot;font-size: 14px;&quot;&gt;Chip set&lt;/font&gt;&lt;/b&gt;" style="rounded=0;whiteSpace=wrap;html=1;fillColor=#b1ddf0;strokeColor=#10739e;" vertex="1" parent="1">
          <mxGeometry x="295" y="390" width="50" height="50" as="geometry" />
        </mxCell>
        <mxCell id="Z-d-DakKIg2ZBR3wUWj1-5" value="&lt;b&gt;&lt;font style=&quot;font-size: 16px; color: rgb(0, 0, 0);&quot;&gt;CPU&lt;/font&gt;&lt;/b&gt;" style="whiteSpace=wrap;html=1;aspect=fixed;fillColor=#1ba1e2;fontColor=#ffffff;strokeColor=#006EAF;" vertex="1" parent="1">
          <mxGeometry x="280" y="270" width="80" height="80" as="geometry" />
        </mxCell>
        <mxCell id="Z-d-DakKIg2ZBR3wUWj1-6" value="&lt;b&gt;&lt;font style=&quot;font-size: 15px;&quot;&gt;InfiniBand&lt;/font&gt;&lt;/b&gt;" style="rounded=1;whiteSpace=wrap;html=1;fillColor=#d5e8d4;strokeColor=#82b366;strokeWidth=3;" vertex="1" parent="1">
          <mxGeometry x="80" y="330" width="120" height="60" as="geometry" />
        </mxCell>
      </root>
    </mxGraphModel>
  </diagram>
</mxfile>
